<mxfile host="Electron" modified="2025-07-15T04:27:47.846Z" agent="Mozilla/5.0 (Windows NT 10.0; Win64; x64) AppleWebKit/537.36 (KHTML, like Gecko) draw.io/24.2.5 Chrome/120.0.6099.109 Electron/28.1.0 Safari/537.36" etag="xcwkivYKvTPgdj9XhEEv" version="24.2.5" type="device">
  <diagram name="ページ1" id="c-9ubtVC1V8GGxsC6dFD">
    <mxGraphModel dx="1000" dy="591" grid="1" gridSize="10" guides="1" tooltips="1" connect="1" arrows="1" fold="1" page="1" pageScale="1" pageWidth="3300" pageHeight="2339" math="0" shadow="0">
      <root>
        <mxCell id="0" />
        <mxCell id="1" parent="0" />
        <mxCell id="Q7y5vTMgyJRnCml2gja3-2" value="" style="strokeWidth=1;shadow=0;dashed=0;align=center;html=1;shape=mxgraph.mockup.containers.browserWindow;rSize=0;strokeColor=#666666;strokeColor2=#008cff;strokeColor3=#c4c4c4;mainText=,;recursiveResize=0;" vertex="1" parent="1">
          <mxGeometry x="140" y="49" width="895" height="530" as="geometry" />
        </mxCell>
        <mxCell id="Q7y5vTMgyJRnCml2gja3-3" value="Page 1" style="strokeWidth=1;shadow=0;dashed=0;align=center;html=1;shape=mxgraph.mockup.containers.anchor;fontSize=17;fontColor=#666666;align=left;whiteSpace=wrap;" vertex="1" parent="Q7y5vTMgyJRnCml2gja3-2">
          <mxGeometry x="60" y="12" width="110" height="26" as="geometry" />
        </mxCell>
        <mxCell id="Q7y5vTMgyJRnCml2gja3-4" value="https://localhost:8080/edit_list" style="strokeWidth=1;shadow=0;dashed=0;align=center;html=1;shape=mxgraph.mockup.containers.anchor;rSize=0;fontSize=17;fontColor=#666666;align=left;" vertex="1" parent="Q7y5vTMgyJRnCml2gja3-2">
          <mxGeometry x="130" y="60" width="250" height="26" as="geometry" />
        </mxCell>
        <mxCell id="Q7y5vTMgyJRnCml2gja3-7" value="&lt;font color=&quot;#007fff&quot;&gt;&lt;u&gt;トップ&lt;/u&gt;&lt;/font&gt;" style="text;html=1;align=center;verticalAlign=middle;whiteSpace=wrap;rounded=0;" vertex="1" parent="Q7y5vTMgyJRnCml2gja3-2">
          <mxGeometry x="10" y="120" width="60" height="30" as="geometry" />
        </mxCell>
        <mxCell id="Q7y5vTMgyJRnCml2gja3-8" value="&lt;font color=&quot;#007fff&quot;&gt;&lt;u&gt;ログアウト&lt;/u&gt;&lt;/font&gt;" style="text;html=1;align=center;verticalAlign=middle;whiteSpace=wrap;rounded=0;" vertex="1" parent="Q7y5vTMgyJRnCml2gja3-2">
          <mxGeometry x="740" y="120" width="70" height="30" as="geometry" />
        </mxCell>
        <mxCell id="Q7y5vTMgyJRnCml2gja3-9" value="&lt;b&gt;&lt;font style=&quot;font-size: 20px;&quot;&gt;編集一覧&lt;/font&gt;&lt;/b&gt;" style="text;html=1;align=center;verticalAlign=middle;whiteSpace=wrap;rounded=0;" vertex="1" parent="Q7y5vTMgyJRnCml2gja3-2">
          <mxGeometry x="350" y="130" width="100" height="30" as="geometry" />
        </mxCell>
        <mxCell id="Q7y5vTMgyJRnCml2gja3-10" value="&lt;div&gt;社員番号：240404590&lt;/div&gt;&lt;div&gt;名前：佐藤　宝&lt;/div&gt;" style="text;html=1;align=left;verticalAlign=middle;whiteSpace=wrap;rounded=0;" vertex="1" parent="Q7y5vTMgyJRnCml2gja3-2">
          <mxGeometry x="690" y="150" width="130" height="30" as="geometry" />
        </mxCell>
        <mxCell id="Q7y5vTMgyJRnCml2gja3-11" value="" style="shape=table;startSize=0;container=1;collapsible=0;childLayout=tableLayout;fontSize=24;" vertex="1" parent="Q7y5vTMgyJRnCml2gja3-2">
          <mxGeometry x="80" y="200" width="706" height="305" as="geometry" />
        </mxCell>
        <mxCell id="Q7y5vTMgyJRnCml2gja3-12" value="" style="shape=tableRow;horizontal=0;startSize=0;swimlaneHead=0;swimlaneBody=0;strokeColor=inherit;top=0;left=0;bottom=0;right=0;collapsible=0;dropTarget=0;fillColor=none;points=[[0,0.5],[1,0.5]];portConstraint=eastwest;fontSize=21;" vertex="1" parent="Q7y5vTMgyJRnCml2gja3-11">
          <mxGeometry width="706" height="20" as="geometry" />
        </mxCell>
        <mxCell id="Q7y5vTMgyJRnCml2gja3-352" value="編集" style="shape=partialRectangle;html=1;whiteSpace=wrap;connectable=0;strokeColor=inherit;overflow=hidden;fillColor=none;top=0;left=0;bottom=0;right=0;pointerEvents=1;fontSize=16;verticalAlign=middle;" vertex="1" parent="Q7y5vTMgyJRnCml2gja3-12">
          <mxGeometry width="86" height="20" as="geometry">
            <mxRectangle width="86" height="20" as="alternateBounds" />
          </mxGeometry>
        </mxCell>
        <mxCell id="Q7y5vTMgyJRnCml2gja3-140" value="年月" style="shape=partialRectangle;html=1;whiteSpace=wrap;connectable=0;strokeColor=inherit;overflow=hidden;fillColor=none;top=0;left=0;bottom=0;right=0;pointerEvents=1;fontSize=16;verticalAlign=middle;" vertex="1" parent="Q7y5vTMgyJRnCml2gja3-12">
          <mxGeometry x="86" width="100" height="20" as="geometry">
            <mxRectangle width="100" height="20" as="alternateBounds" />
          </mxGeometry>
        </mxCell>
        <mxCell id="Q7y5vTMgyJRnCml2gja3-132" value="始業時間" style="shape=partialRectangle;html=1;whiteSpace=wrap;connectable=0;strokeColor=inherit;overflow=hidden;fillColor=none;top=0;left=0;bottom=0;right=0;pointerEvents=1;fontSize=16;" vertex="1" parent="Q7y5vTMgyJRnCml2gja3-12">
          <mxGeometry x="186" width="100" height="20" as="geometry">
            <mxRectangle width="100" height="20" as="alternateBounds" />
          </mxGeometry>
        </mxCell>
        <mxCell id="Q7y5vTMgyJRnCml2gja3-124" value="終業時間" style="shape=partialRectangle;html=1;whiteSpace=wrap;connectable=0;strokeColor=inherit;overflow=hidden;fillColor=none;top=0;left=0;bottom=0;right=0;pointerEvents=1;fontSize=16;" vertex="1" parent="Q7y5vTMgyJRnCml2gja3-12">
          <mxGeometry x="286" width="100" height="20" as="geometry">
            <mxRectangle width="100" height="20" as="alternateBounds" />
          </mxGeometry>
        </mxCell>
        <mxCell id="Q7y5vTMgyJRnCml2gja3-108" value="労働時間" style="shape=partialRectangle;html=1;whiteSpace=wrap;connectable=0;strokeColor=inherit;overflow=hidden;fillColor=none;top=0;left=0;bottom=0;right=0;pointerEvents=1;fontSize=16;" vertex="1" parent="Q7y5vTMgyJRnCml2gja3-12">
          <mxGeometry x="386" width="100" height="20" as="geometry">
            <mxRectangle width="100" height="20" as="alternateBounds" />
          </mxGeometry>
        </mxCell>
        <mxCell id="Q7y5vTMgyJRnCml2gja3-84" value="休憩時間" style="shape=partialRectangle;html=1;whiteSpace=wrap;connectable=0;strokeColor=inherit;overflow=hidden;fillColor=none;top=0;left=0;bottom=0;right=0;pointerEvents=1;fontSize=16;" vertex="1" parent="Q7y5vTMgyJRnCml2gja3-12">
          <mxGeometry x="486" width="100" height="20" as="geometry">
            <mxRectangle width="100" height="20" as="alternateBounds" />
          </mxGeometry>
        </mxCell>
        <mxCell id="Q7y5vTMgyJRnCml2gja3-68" value="累積超過時間" style="shape=partialRectangle;html=1;whiteSpace=wrap;connectable=0;strokeColor=inherit;overflow=hidden;fillColor=none;top=0;left=0;bottom=0;right=0;pointerEvents=1;fontSize=16;" vertex="1" parent="Q7y5vTMgyJRnCml2gja3-12">
          <mxGeometry x="586" width="120" height="20" as="geometry">
            <mxRectangle width="120" height="20" as="alternateBounds" />
          </mxGeometry>
        </mxCell>
        <mxCell id="Q7y5vTMgyJRnCml2gja3-199" style="shape=tableRow;horizontal=0;startSize=0;swimlaneHead=0;swimlaneBody=0;strokeColor=inherit;top=0;left=0;bottom=0;right=0;collapsible=0;dropTarget=0;fillColor=none;points=[[0,0.5],[1,0.5]];portConstraint=eastwest;fontSize=16;" vertex="1" parent="Q7y5vTMgyJRnCml2gja3-11">
          <mxGeometry y="20" width="706" height="15" as="geometry" />
        </mxCell>
        <mxCell id="Q7y5vTMgyJRnCml2gja3-353" style="shape=partialRectangle;html=1;whiteSpace=wrap;connectable=0;strokeColor=inherit;overflow=hidden;fillColor=none;top=0;left=0;bottom=0;right=0;pointerEvents=1;fontSize=16;" vertex="1" parent="Q7y5vTMgyJRnCml2gja3-199">
          <mxGeometry width="86" height="15" as="geometry">
            <mxRectangle width="86" height="15" as="alternateBounds" />
          </mxGeometry>
        </mxCell>
        <mxCell id="Q7y5vTMgyJRnCml2gja3-200" value="" style="shape=partialRectangle;html=1;whiteSpace=wrap;connectable=0;strokeColor=inherit;overflow=hidden;fillColor=none;top=0;left=0;bottom=0;right=0;pointerEvents=1;fontSize=16;" vertex="1" parent="Q7y5vTMgyJRnCml2gja3-199">
          <mxGeometry x="86" width="100" height="15" as="geometry">
            <mxRectangle width="100" height="15" as="alternateBounds" />
          </mxGeometry>
        </mxCell>
        <mxCell id="Q7y5vTMgyJRnCml2gja3-201" style="shape=partialRectangle;html=1;whiteSpace=wrap;connectable=0;strokeColor=inherit;overflow=hidden;fillColor=none;top=0;left=0;bottom=0;right=0;pointerEvents=1;fontSize=16;" vertex="1" parent="Q7y5vTMgyJRnCml2gja3-199">
          <mxGeometry x="186" width="100" height="15" as="geometry">
            <mxRectangle width="100" height="15" as="alternateBounds" />
          </mxGeometry>
        </mxCell>
        <mxCell id="Q7y5vTMgyJRnCml2gja3-202" style="shape=partialRectangle;html=1;whiteSpace=wrap;connectable=0;strokeColor=inherit;overflow=hidden;fillColor=none;top=0;left=0;bottom=0;right=0;pointerEvents=1;fontSize=16;" vertex="1" parent="Q7y5vTMgyJRnCml2gja3-199">
          <mxGeometry x="286" width="100" height="15" as="geometry">
            <mxRectangle width="100" height="15" as="alternateBounds" />
          </mxGeometry>
        </mxCell>
        <mxCell id="Q7y5vTMgyJRnCml2gja3-204" style="shape=partialRectangle;html=1;whiteSpace=wrap;connectable=0;strokeColor=inherit;overflow=hidden;fillColor=none;top=0;left=0;bottom=0;right=0;pointerEvents=1;fontSize=16;" vertex="1" parent="Q7y5vTMgyJRnCml2gja3-199">
          <mxGeometry x="386" width="100" height="15" as="geometry">
            <mxRectangle width="100" height="15" as="alternateBounds" />
          </mxGeometry>
        </mxCell>
        <mxCell id="Q7y5vTMgyJRnCml2gja3-207" style="shape=partialRectangle;html=1;whiteSpace=wrap;connectable=0;strokeColor=inherit;overflow=hidden;fillColor=none;top=0;left=0;bottom=0;right=0;pointerEvents=1;fontSize=16;" vertex="1" parent="Q7y5vTMgyJRnCml2gja3-199">
          <mxGeometry x="486" width="100" height="15" as="geometry">
            <mxRectangle width="100" height="15" as="alternateBounds" />
          </mxGeometry>
        </mxCell>
        <mxCell id="Q7y5vTMgyJRnCml2gja3-209" style="shape=partialRectangle;html=1;whiteSpace=wrap;connectable=0;strokeColor=inherit;overflow=hidden;fillColor=none;top=0;left=0;bottom=0;right=0;pointerEvents=1;fontSize=16;" vertex="1" parent="Q7y5vTMgyJRnCml2gja3-199">
          <mxGeometry x="586" width="120" height="15" as="geometry">
            <mxRectangle width="120" height="15" as="alternateBounds" />
          </mxGeometry>
        </mxCell>
        <mxCell id="Q7y5vTMgyJRnCml2gja3-182" style="shape=tableRow;horizontal=0;startSize=0;swimlaneHead=0;swimlaneBody=0;strokeColor=inherit;top=0;left=0;bottom=0;right=0;collapsible=0;dropTarget=0;fillColor=none;points=[[0,0.5],[1,0.5]];portConstraint=eastwest;fontSize=16;" vertex="1" parent="Q7y5vTMgyJRnCml2gja3-11">
          <mxGeometry y="35" width="706" height="15" as="geometry" />
        </mxCell>
        <mxCell id="Q7y5vTMgyJRnCml2gja3-354" style="shape=partialRectangle;html=1;whiteSpace=wrap;connectable=0;strokeColor=inherit;overflow=hidden;fillColor=none;top=0;left=0;bottom=0;right=0;pointerEvents=1;fontSize=16;" vertex="1" parent="Q7y5vTMgyJRnCml2gja3-182">
          <mxGeometry width="86" height="15" as="geometry">
            <mxRectangle width="86" height="15" as="alternateBounds" />
          </mxGeometry>
        </mxCell>
        <mxCell id="Q7y5vTMgyJRnCml2gja3-183" value="" style="shape=partialRectangle;html=1;whiteSpace=wrap;connectable=0;strokeColor=inherit;overflow=hidden;fillColor=none;top=0;left=0;bottom=0;right=0;pointerEvents=1;fontSize=16;" vertex="1" parent="Q7y5vTMgyJRnCml2gja3-182">
          <mxGeometry x="86" width="100" height="15" as="geometry">
            <mxRectangle width="100" height="15" as="alternateBounds" />
          </mxGeometry>
        </mxCell>
        <mxCell id="Q7y5vTMgyJRnCml2gja3-184" style="shape=partialRectangle;html=1;whiteSpace=wrap;connectable=0;strokeColor=inherit;overflow=hidden;fillColor=none;top=0;left=0;bottom=0;right=0;pointerEvents=1;fontSize=16;" vertex="1" parent="Q7y5vTMgyJRnCml2gja3-182">
          <mxGeometry x="186" width="100" height="15" as="geometry">
            <mxRectangle width="100" height="15" as="alternateBounds" />
          </mxGeometry>
        </mxCell>
        <mxCell id="Q7y5vTMgyJRnCml2gja3-185" style="shape=partialRectangle;html=1;whiteSpace=wrap;connectable=0;strokeColor=inherit;overflow=hidden;fillColor=none;top=0;left=0;bottom=0;right=0;pointerEvents=1;fontSize=16;" vertex="1" parent="Q7y5vTMgyJRnCml2gja3-182">
          <mxGeometry x="286" width="100" height="15" as="geometry">
            <mxRectangle width="100" height="15" as="alternateBounds" />
          </mxGeometry>
        </mxCell>
        <mxCell id="Q7y5vTMgyJRnCml2gja3-187" style="shape=partialRectangle;html=1;whiteSpace=wrap;connectable=0;strokeColor=inherit;overflow=hidden;fillColor=none;top=0;left=0;bottom=0;right=0;pointerEvents=1;fontSize=16;" vertex="1" parent="Q7y5vTMgyJRnCml2gja3-182">
          <mxGeometry x="386" width="100" height="15" as="geometry">
            <mxRectangle width="100" height="15" as="alternateBounds" />
          </mxGeometry>
        </mxCell>
        <mxCell id="Q7y5vTMgyJRnCml2gja3-190" style="shape=partialRectangle;html=1;whiteSpace=wrap;connectable=0;strokeColor=inherit;overflow=hidden;fillColor=none;top=0;left=0;bottom=0;right=0;pointerEvents=1;fontSize=16;" vertex="1" parent="Q7y5vTMgyJRnCml2gja3-182">
          <mxGeometry x="486" width="100" height="15" as="geometry">
            <mxRectangle width="100" height="15" as="alternateBounds" />
          </mxGeometry>
        </mxCell>
        <mxCell id="Q7y5vTMgyJRnCml2gja3-192" style="shape=partialRectangle;html=1;whiteSpace=wrap;connectable=0;strokeColor=inherit;overflow=hidden;fillColor=none;top=0;left=0;bottom=0;right=0;pointerEvents=1;fontSize=16;" vertex="1" parent="Q7y5vTMgyJRnCml2gja3-182">
          <mxGeometry x="586" width="120" height="15" as="geometry">
            <mxRectangle width="120" height="15" as="alternateBounds" />
          </mxGeometry>
        </mxCell>
        <mxCell id="Q7y5vTMgyJRnCml2gja3-165" style="shape=tableRow;horizontal=0;startSize=0;swimlaneHead=0;swimlaneBody=0;strokeColor=inherit;top=0;left=0;bottom=0;right=0;collapsible=0;dropTarget=0;fillColor=none;points=[[0,0.5],[1,0.5]];portConstraint=eastwest;fontSize=16;" vertex="1" parent="Q7y5vTMgyJRnCml2gja3-11">
          <mxGeometry y="50" width="706" height="15" as="geometry" />
        </mxCell>
        <mxCell id="Q7y5vTMgyJRnCml2gja3-355" style="shape=partialRectangle;html=1;whiteSpace=wrap;connectable=0;strokeColor=inherit;overflow=hidden;fillColor=none;top=0;left=0;bottom=0;right=0;pointerEvents=1;fontSize=16;" vertex="1" parent="Q7y5vTMgyJRnCml2gja3-165">
          <mxGeometry width="86" height="15" as="geometry">
            <mxRectangle width="86" height="15" as="alternateBounds" />
          </mxGeometry>
        </mxCell>
        <mxCell id="Q7y5vTMgyJRnCml2gja3-166" value="" style="shape=partialRectangle;html=1;whiteSpace=wrap;connectable=0;strokeColor=inherit;overflow=hidden;fillColor=none;top=0;left=0;bottom=0;right=0;pointerEvents=1;fontSize=16;" vertex="1" parent="Q7y5vTMgyJRnCml2gja3-165">
          <mxGeometry x="86" width="100" height="15" as="geometry">
            <mxRectangle width="100" height="15" as="alternateBounds" />
          </mxGeometry>
        </mxCell>
        <mxCell id="Q7y5vTMgyJRnCml2gja3-167" style="shape=partialRectangle;html=1;whiteSpace=wrap;connectable=0;strokeColor=inherit;overflow=hidden;fillColor=none;top=0;left=0;bottom=0;right=0;pointerEvents=1;fontSize=16;" vertex="1" parent="Q7y5vTMgyJRnCml2gja3-165">
          <mxGeometry x="186" width="100" height="15" as="geometry">
            <mxRectangle width="100" height="15" as="alternateBounds" />
          </mxGeometry>
        </mxCell>
        <mxCell id="Q7y5vTMgyJRnCml2gja3-168" style="shape=partialRectangle;html=1;whiteSpace=wrap;connectable=0;strokeColor=inherit;overflow=hidden;fillColor=none;top=0;left=0;bottom=0;right=0;pointerEvents=1;fontSize=16;" vertex="1" parent="Q7y5vTMgyJRnCml2gja3-165">
          <mxGeometry x="286" width="100" height="15" as="geometry">
            <mxRectangle width="100" height="15" as="alternateBounds" />
          </mxGeometry>
        </mxCell>
        <mxCell id="Q7y5vTMgyJRnCml2gja3-170" style="shape=partialRectangle;html=1;whiteSpace=wrap;connectable=0;strokeColor=inherit;overflow=hidden;fillColor=none;top=0;left=0;bottom=0;right=0;pointerEvents=1;fontSize=16;" vertex="1" parent="Q7y5vTMgyJRnCml2gja3-165">
          <mxGeometry x="386" width="100" height="15" as="geometry">
            <mxRectangle width="100" height="15" as="alternateBounds" />
          </mxGeometry>
        </mxCell>
        <mxCell id="Q7y5vTMgyJRnCml2gja3-173" style="shape=partialRectangle;html=1;whiteSpace=wrap;connectable=0;strokeColor=inherit;overflow=hidden;fillColor=none;top=0;left=0;bottom=0;right=0;pointerEvents=1;fontSize=16;" vertex="1" parent="Q7y5vTMgyJRnCml2gja3-165">
          <mxGeometry x="486" width="100" height="15" as="geometry">
            <mxRectangle width="100" height="15" as="alternateBounds" />
          </mxGeometry>
        </mxCell>
        <mxCell id="Q7y5vTMgyJRnCml2gja3-175" style="shape=partialRectangle;html=1;whiteSpace=wrap;connectable=0;strokeColor=inherit;overflow=hidden;fillColor=none;top=0;left=0;bottom=0;right=0;pointerEvents=1;fontSize=16;" vertex="1" parent="Q7y5vTMgyJRnCml2gja3-165">
          <mxGeometry x="586" width="120" height="15" as="geometry">
            <mxRectangle width="120" height="15" as="alternateBounds" />
          </mxGeometry>
        </mxCell>
        <mxCell id="Q7y5vTMgyJRnCml2gja3-148" style="shape=tableRow;horizontal=0;startSize=0;swimlaneHead=0;swimlaneBody=0;strokeColor=inherit;top=0;left=0;bottom=0;right=0;collapsible=0;dropTarget=0;fillColor=none;points=[[0,0.5],[1,0.5]];portConstraint=eastwest;fontSize=16;" vertex="1" parent="Q7y5vTMgyJRnCml2gja3-11">
          <mxGeometry y="65" width="706" height="15" as="geometry" />
        </mxCell>
        <mxCell id="Q7y5vTMgyJRnCml2gja3-356" style="shape=partialRectangle;html=1;whiteSpace=wrap;connectable=0;strokeColor=inherit;overflow=hidden;fillColor=none;top=0;left=0;bottom=0;right=0;pointerEvents=1;fontSize=16;" vertex="1" parent="Q7y5vTMgyJRnCml2gja3-148">
          <mxGeometry width="86" height="15" as="geometry">
            <mxRectangle width="86" height="15" as="alternateBounds" />
          </mxGeometry>
        </mxCell>
        <mxCell id="Q7y5vTMgyJRnCml2gja3-149" value="" style="shape=partialRectangle;html=1;whiteSpace=wrap;connectable=0;strokeColor=inherit;overflow=hidden;fillColor=none;top=0;left=0;bottom=0;right=0;pointerEvents=1;fontSize=16;" vertex="1" parent="Q7y5vTMgyJRnCml2gja3-148">
          <mxGeometry x="86" width="100" height="15" as="geometry">
            <mxRectangle width="100" height="15" as="alternateBounds" />
          </mxGeometry>
        </mxCell>
        <mxCell id="Q7y5vTMgyJRnCml2gja3-150" style="shape=partialRectangle;html=1;whiteSpace=wrap;connectable=0;strokeColor=inherit;overflow=hidden;fillColor=none;top=0;left=0;bottom=0;right=0;pointerEvents=1;fontSize=16;" vertex="1" parent="Q7y5vTMgyJRnCml2gja3-148">
          <mxGeometry x="186" width="100" height="15" as="geometry">
            <mxRectangle width="100" height="15" as="alternateBounds" />
          </mxGeometry>
        </mxCell>
        <mxCell id="Q7y5vTMgyJRnCml2gja3-151" style="shape=partialRectangle;html=1;whiteSpace=wrap;connectable=0;strokeColor=inherit;overflow=hidden;fillColor=none;top=0;left=0;bottom=0;right=0;pointerEvents=1;fontSize=16;" vertex="1" parent="Q7y5vTMgyJRnCml2gja3-148">
          <mxGeometry x="286" width="100" height="15" as="geometry">
            <mxRectangle width="100" height="15" as="alternateBounds" />
          </mxGeometry>
        </mxCell>
        <mxCell id="Q7y5vTMgyJRnCml2gja3-153" style="shape=partialRectangle;html=1;whiteSpace=wrap;connectable=0;strokeColor=inherit;overflow=hidden;fillColor=none;top=0;left=0;bottom=0;right=0;pointerEvents=1;fontSize=16;" vertex="1" parent="Q7y5vTMgyJRnCml2gja3-148">
          <mxGeometry x="386" width="100" height="15" as="geometry">
            <mxRectangle width="100" height="15" as="alternateBounds" />
          </mxGeometry>
        </mxCell>
        <mxCell id="Q7y5vTMgyJRnCml2gja3-156" style="shape=partialRectangle;html=1;whiteSpace=wrap;connectable=0;strokeColor=inherit;overflow=hidden;fillColor=none;top=0;left=0;bottom=0;right=0;pointerEvents=1;fontSize=16;" vertex="1" parent="Q7y5vTMgyJRnCml2gja3-148">
          <mxGeometry x="486" width="100" height="15" as="geometry">
            <mxRectangle width="100" height="15" as="alternateBounds" />
          </mxGeometry>
        </mxCell>
        <mxCell id="Q7y5vTMgyJRnCml2gja3-158" style="shape=partialRectangle;html=1;whiteSpace=wrap;connectable=0;strokeColor=inherit;overflow=hidden;fillColor=none;top=0;left=0;bottom=0;right=0;pointerEvents=1;fontSize=16;" vertex="1" parent="Q7y5vTMgyJRnCml2gja3-148">
          <mxGeometry x="586" width="120" height="15" as="geometry">
            <mxRectangle width="120" height="15" as="alternateBounds" />
          </mxGeometry>
        </mxCell>
        <mxCell id="Q7y5vTMgyJRnCml2gja3-40" value="" style="shape=tableRow;horizontal=0;startSize=0;swimlaneHead=0;swimlaneBody=0;strokeColor=inherit;top=0;left=0;bottom=0;right=0;collapsible=0;dropTarget=0;fillColor=none;points=[[0,0.5],[1,0.5]];portConstraint=eastwest;fontSize=16;" vertex="1" parent="Q7y5vTMgyJRnCml2gja3-11">
          <mxGeometry y="80" width="706" height="15" as="geometry" />
        </mxCell>
        <mxCell id="Q7y5vTMgyJRnCml2gja3-357" style="shape=partialRectangle;html=1;whiteSpace=wrap;connectable=0;strokeColor=inherit;overflow=hidden;fillColor=none;top=0;left=0;bottom=0;right=0;pointerEvents=1;fontSize=16;" vertex="1" parent="Q7y5vTMgyJRnCml2gja3-40">
          <mxGeometry width="86" height="15" as="geometry">
            <mxRectangle width="86" height="15" as="alternateBounds" />
          </mxGeometry>
        </mxCell>
        <mxCell id="Q7y5vTMgyJRnCml2gja3-141" value="" style="shape=partialRectangle;html=1;whiteSpace=wrap;connectable=0;strokeColor=inherit;overflow=hidden;fillColor=none;top=0;left=0;bottom=0;right=0;pointerEvents=1;fontSize=16;" vertex="1" parent="Q7y5vTMgyJRnCml2gja3-40">
          <mxGeometry x="86" width="100" height="15" as="geometry">
            <mxRectangle width="100" height="15" as="alternateBounds" />
          </mxGeometry>
        </mxCell>
        <mxCell id="Q7y5vTMgyJRnCml2gja3-133" style="shape=partialRectangle;html=1;whiteSpace=wrap;connectable=0;strokeColor=inherit;overflow=hidden;fillColor=none;top=0;left=0;bottom=0;right=0;pointerEvents=1;fontSize=16;" vertex="1" parent="Q7y5vTMgyJRnCml2gja3-40">
          <mxGeometry x="186" width="100" height="15" as="geometry">
            <mxRectangle width="100" height="15" as="alternateBounds" />
          </mxGeometry>
        </mxCell>
        <mxCell id="Q7y5vTMgyJRnCml2gja3-125" style="shape=partialRectangle;html=1;whiteSpace=wrap;connectable=0;strokeColor=inherit;overflow=hidden;fillColor=none;top=0;left=0;bottom=0;right=0;pointerEvents=1;fontSize=16;" vertex="1" parent="Q7y5vTMgyJRnCml2gja3-40">
          <mxGeometry x="286" width="100" height="15" as="geometry">
            <mxRectangle width="100" height="15" as="alternateBounds" />
          </mxGeometry>
        </mxCell>
        <mxCell id="Q7y5vTMgyJRnCml2gja3-109" style="shape=partialRectangle;html=1;whiteSpace=wrap;connectable=0;strokeColor=inherit;overflow=hidden;fillColor=none;top=0;left=0;bottom=0;right=0;pointerEvents=1;fontSize=16;" vertex="1" parent="Q7y5vTMgyJRnCml2gja3-40">
          <mxGeometry x="386" width="100" height="15" as="geometry">
            <mxRectangle width="100" height="15" as="alternateBounds" />
          </mxGeometry>
        </mxCell>
        <mxCell id="Q7y5vTMgyJRnCml2gja3-85" style="shape=partialRectangle;html=1;whiteSpace=wrap;connectable=0;strokeColor=inherit;overflow=hidden;fillColor=none;top=0;left=0;bottom=0;right=0;pointerEvents=1;fontSize=16;" vertex="1" parent="Q7y5vTMgyJRnCml2gja3-40">
          <mxGeometry x="486" width="100" height="15" as="geometry">
            <mxRectangle width="100" height="15" as="alternateBounds" />
          </mxGeometry>
        </mxCell>
        <mxCell id="Q7y5vTMgyJRnCml2gja3-69" style="shape=partialRectangle;html=1;whiteSpace=wrap;connectable=0;strokeColor=inherit;overflow=hidden;fillColor=none;top=0;left=0;bottom=0;right=0;pointerEvents=1;fontSize=16;" vertex="1" parent="Q7y5vTMgyJRnCml2gja3-40">
          <mxGeometry x="586" width="120" height="15" as="geometry">
            <mxRectangle width="120" height="15" as="alternateBounds" />
          </mxGeometry>
        </mxCell>
        <mxCell id="Q7y5vTMgyJRnCml2gja3-36" value="" style="shape=tableRow;horizontal=0;startSize=0;swimlaneHead=0;swimlaneBody=0;strokeColor=inherit;top=0;left=0;bottom=0;right=0;collapsible=0;dropTarget=0;fillColor=none;points=[[0,0.5],[1,0.5]];portConstraint=eastwest;fontSize=16;" vertex="1" parent="Q7y5vTMgyJRnCml2gja3-11">
          <mxGeometry y="95" width="706" height="15" as="geometry" />
        </mxCell>
        <mxCell id="Q7y5vTMgyJRnCml2gja3-358" style="shape=partialRectangle;html=1;whiteSpace=wrap;connectable=0;strokeColor=inherit;overflow=hidden;fillColor=none;top=0;left=0;bottom=0;right=0;pointerEvents=1;fontSize=16;" vertex="1" parent="Q7y5vTMgyJRnCml2gja3-36">
          <mxGeometry width="86" height="15" as="geometry">
            <mxRectangle width="86" height="15" as="alternateBounds" />
          </mxGeometry>
        </mxCell>
        <mxCell id="Q7y5vTMgyJRnCml2gja3-142" value="" style="shape=partialRectangle;html=1;whiteSpace=wrap;connectable=0;strokeColor=inherit;overflow=hidden;fillColor=none;top=0;left=0;bottom=0;right=0;pointerEvents=1;fontSize=16;" vertex="1" parent="Q7y5vTMgyJRnCml2gja3-36">
          <mxGeometry x="86" width="100" height="15" as="geometry">
            <mxRectangle width="100" height="15" as="alternateBounds" />
          </mxGeometry>
        </mxCell>
        <mxCell id="Q7y5vTMgyJRnCml2gja3-134" style="shape=partialRectangle;html=1;whiteSpace=wrap;connectable=0;strokeColor=inherit;overflow=hidden;fillColor=none;top=0;left=0;bottom=0;right=0;pointerEvents=1;fontSize=16;" vertex="1" parent="Q7y5vTMgyJRnCml2gja3-36">
          <mxGeometry x="186" width="100" height="15" as="geometry">
            <mxRectangle width="100" height="15" as="alternateBounds" />
          </mxGeometry>
        </mxCell>
        <mxCell id="Q7y5vTMgyJRnCml2gja3-126" style="shape=partialRectangle;html=1;whiteSpace=wrap;connectable=0;strokeColor=inherit;overflow=hidden;fillColor=none;top=0;left=0;bottom=0;right=0;pointerEvents=1;fontSize=16;" vertex="1" parent="Q7y5vTMgyJRnCml2gja3-36">
          <mxGeometry x="286" width="100" height="15" as="geometry">
            <mxRectangle width="100" height="15" as="alternateBounds" />
          </mxGeometry>
        </mxCell>
        <mxCell id="Q7y5vTMgyJRnCml2gja3-110" style="shape=partialRectangle;html=1;whiteSpace=wrap;connectable=0;strokeColor=inherit;overflow=hidden;fillColor=none;top=0;left=0;bottom=0;right=0;pointerEvents=1;fontSize=16;" vertex="1" parent="Q7y5vTMgyJRnCml2gja3-36">
          <mxGeometry x="386" width="100" height="15" as="geometry">
            <mxRectangle width="100" height="15" as="alternateBounds" />
          </mxGeometry>
        </mxCell>
        <mxCell id="Q7y5vTMgyJRnCml2gja3-86" style="shape=partialRectangle;html=1;whiteSpace=wrap;connectable=0;strokeColor=inherit;overflow=hidden;fillColor=none;top=0;left=0;bottom=0;right=0;pointerEvents=1;fontSize=16;" vertex="1" parent="Q7y5vTMgyJRnCml2gja3-36">
          <mxGeometry x="486" width="100" height="15" as="geometry">
            <mxRectangle width="100" height="15" as="alternateBounds" />
          </mxGeometry>
        </mxCell>
        <mxCell id="Q7y5vTMgyJRnCml2gja3-70" style="shape=partialRectangle;html=1;whiteSpace=wrap;connectable=0;strokeColor=inherit;overflow=hidden;fillColor=none;top=0;left=0;bottom=0;right=0;pointerEvents=1;fontSize=16;" vertex="1" parent="Q7y5vTMgyJRnCml2gja3-36">
          <mxGeometry x="586" width="120" height="15" as="geometry">
            <mxRectangle width="120" height="15" as="alternateBounds" />
          </mxGeometry>
        </mxCell>
        <mxCell id="Q7y5vTMgyJRnCml2gja3-24" value="" style="shape=tableRow;horizontal=0;startSize=0;swimlaneHead=0;swimlaneBody=0;strokeColor=inherit;top=0;left=0;bottom=0;right=0;collapsible=0;dropTarget=0;fillColor=none;points=[[0,0.5],[1,0.5]];portConstraint=eastwest;fontSize=16;" vertex="1" parent="Q7y5vTMgyJRnCml2gja3-11">
          <mxGeometry y="110" width="706" height="15" as="geometry" />
        </mxCell>
        <mxCell id="Q7y5vTMgyJRnCml2gja3-359" style="shape=partialRectangle;html=1;whiteSpace=wrap;connectable=0;strokeColor=inherit;overflow=hidden;fillColor=none;top=0;left=0;bottom=0;right=0;pointerEvents=1;fontSize=16;" vertex="1" parent="Q7y5vTMgyJRnCml2gja3-24">
          <mxGeometry width="86" height="15" as="geometry">
            <mxRectangle width="86" height="15" as="alternateBounds" />
          </mxGeometry>
        </mxCell>
        <mxCell id="Q7y5vTMgyJRnCml2gja3-143" value="" style="shape=partialRectangle;html=1;whiteSpace=wrap;connectable=0;strokeColor=inherit;overflow=hidden;fillColor=none;top=0;left=0;bottom=0;right=0;pointerEvents=1;fontSize=16;" vertex="1" parent="Q7y5vTMgyJRnCml2gja3-24">
          <mxGeometry x="86" width="100" height="15" as="geometry">
            <mxRectangle width="100" height="15" as="alternateBounds" />
          </mxGeometry>
        </mxCell>
        <mxCell id="Q7y5vTMgyJRnCml2gja3-135" style="shape=partialRectangle;html=1;whiteSpace=wrap;connectable=0;strokeColor=inherit;overflow=hidden;fillColor=none;top=0;left=0;bottom=0;right=0;pointerEvents=1;fontSize=16;" vertex="1" parent="Q7y5vTMgyJRnCml2gja3-24">
          <mxGeometry x="186" width="100" height="15" as="geometry">
            <mxRectangle width="100" height="15" as="alternateBounds" />
          </mxGeometry>
        </mxCell>
        <mxCell id="Q7y5vTMgyJRnCml2gja3-127" style="shape=partialRectangle;html=1;whiteSpace=wrap;connectable=0;strokeColor=inherit;overflow=hidden;fillColor=none;top=0;left=0;bottom=0;right=0;pointerEvents=1;fontSize=16;" vertex="1" parent="Q7y5vTMgyJRnCml2gja3-24">
          <mxGeometry x="286" width="100" height="15" as="geometry">
            <mxRectangle width="100" height="15" as="alternateBounds" />
          </mxGeometry>
        </mxCell>
        <mxCell id="Q7y5vTMgyJRnCml2gja3-111" style="shape=partialRectangle;html=1;whiteSpace=wrap;connectable=0;strokeColor=inherit;overflow=hidden;fillColor=none;top=0;left=0;bottom=0;right=0;pointerEvents=1;fontSize=16;" vertex="1" parent="Q7y5vTMgyJRnCml2gja3-24">
          <mxGeometry x="386" width="100" height="15" as="geometry">
            <mxRectangle width="100" height="15" as="alternateBounds" />
          </mxGeometry>
        </mxCell>
        <mxCell id="Q7y5vTMgyJRnCml2gja3-87" style="shape=partialRectangle;html=1;whiteSpace=wrap;connectable=0;strokeColor=inherit;overflow=hidden;fillColor=none;top=0;left=0;bottom=0;right=0;pointerEvents=1;fontSize=16;" vertex="1" parent="Q7y5vTMgyJRnCml2gja3-24">
          <mxGeometry x="486" width="100" height="15" as="geometry">
            <mxRectangle width="100" height="15" as="alternateBounds" />
          </mxGeometry>
        </mxCell>
        <mxCell id="Q7y5vTMgyJRnCml2gja3-71" style="shape=partialRectangle;html=1;whiteSpace=wrap;connectable=0;strokeColor=inherit;overflow=hidden;fillColor=none;top=0;left=0;bottom=0;right=0;pointerEvents=1;fontSize=16;" vertex="1" parent="Q7y5vTMgyJRnCml2gja3-24">
          <mxGeometry x="586" width="120" height="15" as="geometry">
            <mxRectangle width="120" height="15" as="alternateBounds" />
          </mxGeometry>
        </mxCell>
        <mxCell id="Q7y5vTMgyJRnCml2gja3-32" value="" style="shape=tableRow;horizontal=0;startSize=0;swimlaneHead=0;swimlaneBody=0;strokeColor=inherit;top=0;left=0;bottom=0;right=0;collapsible=0;dropTarget=0;fillColor=none;points=[[0,0.5],[1,0.5]];portConstraint=eastwest;fontSize=16;" vertex="1" parent="Q7y5vTMgyJRnCml2gja3-11">
          <mxGeometry y="125" width="706" height="15" as="geometry" />
        </mxCell>
        <mxCell id="Q7y5vTMgyJRnCml2gja3-360" style="shape=partialRectangle;html=1;whiteSpace=wrap;connectable=0;strokeColor=inherit;overflow=hidden;fillColor=none;top=0;left=0;bottom=0;right=0;pointerEvents=1;fontSize=16;" vertex="1" parent="Q7y5vTMgyJRnCml2gja3-32">
          <mxGeometry width="86" height="15" as="geometry">
            <mxRectangle width="86" height="15" as="alternateBounds" />
          </mxGeometry>
        </mxCell>
        <mxCell id="Q7y5vTMgyJRnCml2gja3-144" value="" style="shape=partialRectangle;html=1;whiteSpace=wrap;connectable=0;strokeColor=inherit;overflow=hidden;fillColor=none;top=0;left=0;bottom=0;right=0;pointerEvents=1;fontSize=16;" vertex="1" parent="Q7y5vTMgyJRnCml2gja3-32">
          <mxGeometry x="86" width="100" height="15" as="geometry">
            <mxRectangle width="100" height="15" as="alternateBounds" />
          </mxGeometry>
        </mxCell>
        <mxCell id="Q7y5vTMgyJRnCml2gja3-136" style="shape=partialRectangle;html=1;whiteSpace=wrap;connectable=0;strokeColor=inherit;overflow=hidden;fillColor=none;top=0;left=0;bottom=0;right=0;pointerEvents=1;fontSize=16;" vertex="1" parent="Q7y5vTMgyJRnCml2gja3-32">
          <mxGeometry x="186" width="100" height="15" as="geometry">
            <mxRectangle width="100" height="15" as="alternateBounds" />
          </mxGeometry>
        </mxCell>
        <mxCell id="Q7y5vTMgyJRnCml2gja3-128" style="shape=partialRectangle;html=1;whiteSpace=wrap;connectable=0;strokeColor=inherit;overflow=hidden;fillColor=none;top=0;left=0;bottom=0;right=0;pointerEvents=1;fontSize=16;" vertex="1" parent="Q7y5vTMgyJRnCml2gja3-32">
          <mxGeometry x="286" width="100" height="15" as="geometry">
            <mxRectangle width="100" height="15" as="alternateBounds" />
          </mxGeometry>
        </mxCell>
        <mxCell id="Q7y5vTMgyJRnCml2gja3-112" style="shape=partialRectangle;html=1;whiteSpace=wrap;connectable=0;strokeColor=inherit;overflow=hidden;fillColor=none;top=0;left=0;bottom=0;right=0;pointerEvents=1;fontSize=16;" vertex="1" parent="Q7y5vTMgyJRnCml2gja3-32">
          <mxGeometry x="386" width="100" height="15" as="geometry">
            <mxRectangle width="100" height="15" as="alternateBounds" />
          </mxGeometry>
        </mxCell>
        <mxCell id="Q7y5vTMgyJRnCml2gja3-88" style="shape=partialRectangle;html=1;whiteSpace=wrap;connectable=0;strokeColor=inherit;overflow=hidden;fillColor=none;top=0;left=0;bottom=0;right=0;pointerEvents=1;fontSize=16;" vertex="1" parent="Q7y5vTMgyJRnCml2gja3-32">
          <mxGeometry x="486" width="100" height="15" as="geometry">
            <mxRectangle width="100" height="15" as="alternateBounds" />
          </mxGeometry>
        </mxCell>
        <mxCell id="Q7y5vTMgyJRnCml2gja3-72" style="shape=partialRectangle;html=1;whiteSpace=wrap;connectable=0;strokeColor=inherit;overflow=hidden;fillColor=none;top=0;left=0;bottom=0;right=0;pointerEvents=1;fontSize=16;" vertex="1" parent="Q7y5vTMgyJRnCml2gja3-32">
          <mxGeometry x="586" width="120" height="15" as="geometry">
            <mxRectangle width="120" height="15" as="alternateBounds" />
          </mxGeometry>
        </mxCell>
        <mxCell id="Q7y5vTMgyJRnCml2gja3-28" value="" style="shape=tableRow;horizontal=0;startSize=0;swimlaneHead=0;swimlaneBody=0;strokeColor=inherit;top=0;left=0;bottom=0;right=0;collapsible=0;dropTarget=0;fillColor=none;points=[[0,0.5],[1,0.5]];portConstraint=eastwest;fontSize=16;" vertex="1" parent="Q7y5vTMgyJRnCml2gja3-11">
          <mxGeometry y="140" width="706" height="15" as="geometry" />
        </mxCell>
        <mxCell id="Q7y5vTMgyJRnCml2gja3-361" style="shape=partialRectangle;html=1;whiteSpace=wrap;connectable=0;strokeColor=inherit;overflow=hidden;fillColor=none;top=0;left=0;bottom=0;right=0;pointerEvents=1;fontSize=16;" vertex="1" parent="Q7y5vTMgyJRnCml2gja3-28">
          <mxGeometry width="86" height="15" as="geometry">
            <mxRectangle width="86" height="15" as="alternateBounds" />
          </mxGeometry>
        </mxCell>
        <mxCell id="Q7y5vTMgyJRnCml2gja3-145" value="" style="shape=partialRectangle;html=1;whiteSpace=wrap;connectable=0;strokeColor=inherit;overflow=hidden;fillColor=none;top=0;left=0;bottom=0;right=0;pointerEvents=1;fontSize=16;" vertex="1" parent="Q7y5vTMgyJRnCml2gja3-28">
          <mxGeometry x="86" width="100" height="15" as="geometry">
            <mxRectangle width="100" height="15" as="alternateBounds" />
          </mxGeometry>
        </mxCell>
        <mxCell id="Q7y5vTMgyJRnCml2gja3-137" style="shape=partialRectangle;html=1;whiteSpace=wrap;connectable=0;strokeColor=inherit;overflow=hidden;fillColor=none;top=0;left=0;bottom=0;right=0;pointerEvents=1;fontSize=16;" vertex="1" parent="Q7y5vTMgyJRnCml2gja3-28">
          <mxGeometry x="186" width="100" height="15" as="geometry">
            <mxRectangle width="100" height="15" as="alternateBounds" />
          </mxGeometry>
        </mxCell>
        <mxCell id="Q7y5vTMgyJRnCml2gja3-129" style="shape=partialRectangle;html=1;whiteSpace=wrap;connectable=0;strokeColor=inherit;overflow=hidden;fillColor=none;top=0;left=0;bottom=0;right=0;pointerEvents=1;fontSize=16;" vertex="1" parent="Q7y5vTMgyJRnCml2gja3-28">
          <mxGeometry x="286" width="100" height="15" as="geometry">
            <mxRectangle width="100" height="15" as="alternateBounds" />
          </mxGeometry>
        </mxCell>
        <mxCell id="Q7y5vTMgyJRnCml2gja3-113" style="shape=partialRectangle;html=1;whiteSpace=wrap;connectable=0;strokeColor=inherit;overflow=hidden;fillColor=none;top=0;left=0;bottom=0;right=0;pointerEvents=1;fontSize=16;" vertex="1" parent="Q7y5vTMgyJRnCml2gja3-28">
          <mxGeometry x="386" width="100" height="15" as="geometry">
            <mxRectangle width="100" height="15" as="alternateBounds" />
          </mxGeometry>
        </mxCell>
        <mxCell id="Q7y5vTMgyJRnCml2gja3-89" style="shape=partialRectangle;html=1;whiteSpace=wrap;connectable=0;strokeColor=inherit;overflow=hidden;fillColor=none;top=0;left=0;bottom=0;right=0;pointerEvents=1;fontSize=16;" vertex="1" parent="Q7y5vTMgyJRnCml2gja3-28">
          <mxGeometry x="486" width="100" height="15" as="geometry">
            <mxRectangle width="100" height="15" as="alternateBounds" />
          </mxGeometry>
        </mxCell>
        <mxCell id="Q7y5vTMgyJRnCml2gja3-73" style="shape=partialRectangle;html=1;whiteSpace=wrap;connectable=0;strokeColor=inherit;overflow=hidden;fillColor=none;top=0;left=0;bottom=0;right=0;pointerEvents=1;fontSize=16;" vertex="1" parent="Q7y5vTMgyJRnCml2gja3-28">
          <mxGeometry x="586" width="120" height="15" as="geometry">
            <mxRectangle width="120" height="15" as="alternateBounds" />
          </mxGeometry>
        </mxCell>
        <mxCell id="Q7y5vTMgyJRnCml2gja3-16" value="" style="shape=tableRow;horizontal=0;startSize=0;swimlaneHead=0;swimlaneBody=0;strokeColor=inherit;top=0;left=0;bottom=0;right=0;collapsible=0;dropTarget=0;fillColor=none;points=[[0,0.5],[1,0.5]];portConstraint=eastwest;fontSize=16;" vertex="1" parent="Q7y5vTMgyJRnCml2gja3-11">
          <mxGeometry y="155" width="706" height="15" as="geometry" />
        </mxCell>
        <mxCell id="Q7y5vTMgyJRnCml2gja3-362" style="shape=partialRectangle;html=1;whiteSpace=wrap;connectable=0;strokeColor=inherit;overflow=hidden;fillColor=none;top=0;left=0;bottom=0;right=0;pointerEvents=1;fontSize=16;" vertex="1" parent="Q7y5vTMgyJRnCml2gja3-16">
          <mxGeometry width="86" height="15" as="geometry">
            <mxRectangle width="86" height="15" as="alternateBounds" />
          </mxGeometry>
        </mxCell>
        <mxCell id="Q7y5vTMgyJRnCml2gja3-146" value="" style="shape=partialRectangle;html=1;whiteSpace=wrap;connectable=0;strokeColor=inherit;overflow=hidden;fillColor=none;top=0;left=0;bottom=0;right=0;pointerEvents=1;fontSize=16;" vertex="1" parent="Q7y5vTMgyJRnCml2gja3-16">
          <mxGeometry x="86" width="100" height="15" as="geometry">
            <mxRectangle width="100" height="15" as="alternateBounds" />
          </mxGeometry>
        </mxCell>
        <mxCell id="Q7y5vTMgyJRnCml2gja3-138" style="shape=partialRectangle;html=1;whiteSpace=wrap;connectable=0;strokeColor=inherit;overflow=hidden;fillColor=none;top=0;left=0;bottom=0;right=0;pointerEvents=1;fontSize=16;" vertex="1" parent="Q7y5vTMgyJRnCml2gja3-16">
          <mxGeometry x="186" width="100" height="15" as="geometry">
            <mxRectangle width="100" height="15" as="alternateBounds" />
          </mxGeometry>
        </mxCell>
        <mxCell id="Q7y5vTMgyJRnCml2gja3-130" style="shape=partialRectangle;html=1;whiteSpace=wrap;connectable=0;strokeColor=inherit;overflow=hidden;fillColor=none;top=0;left=0;bottom=0;right=0;pointerEvents=1;fontSize=16;" vertex="1" parent="Q7y5vTMgyJRnCml2gja3-16">
          <mxGeometry x="286" width="100" height="15" as="geometry">
            <mxRectangle width="100" height="15" as="alternateBounds" />
          </mxGeometry>
        </mxCell>
        <mxCell id="Q7y5vTMgyJRnCml2gja3-114" style="shape=partialRectangle;html=1;whiteSpace=wrap;connectable=0;strokeColor=inherit;overflow=hidden;fillColor=none;top=0;left=0;bottom=0;right=0;pointerEvents=1;fontSize=16;" vertex="1" parent="Q7y5vTMgyJRnCml2gja3-16">
          <mxGeometry x="386" width="100" height="15" as="geometry">
            <mxRectangle width="100" height="15" as="alternateBounds" />
          </mxGeometry>
        </mxCell>
        <mxCell id="Q7y5vTMgyJRnCml2gja3-90" style="shape=partialRectangle;html=1;whiteSpace=wrap;connectable=0;strokeColor=inherit;overflow=hidden;fillColor=none;top=0;left=0;bottom=0;right=0;pointerEvents=1;fontSize=16;" vertex="1" parent="Q7y5vTMgyJRnCml2gja3-16">
          <mxGeometry x="486" width="100" height="15" as="geometry">
            <mxRectangle width="100" height="15" as="alternateBounds" />
          </mxGeometry>
        </mxCell>
        <mxCell id="Q7y5vTMgyJRnCml2gja3-74" style="shape=partialRectangle;html=1;whiteSpace=wrap;connectable=0;strokeColor=inherit;overflow=hidden;fillColor=none;top=0;left=0;bottom=0;right=0;pointerEvents=1;fontSize=16;" vertex="1" parent="Q7y5vTMgyJRnCml2gja3-16">
          <mxGeometry x="586" width="120" height="15" as="geometry">
            <mxRectangle width="120" height="15" as="alternateBounds" />
          </mxGeometry>
        </mxCell>
        <mxCell id="Q7y5vTMgyJRnCml2gja3-20" value="" style="shape=tableRow;horizontal=0;startSize=0;swimlaneHead=0;swimlaneBody=0;strokeColor=inherit;top=0;left=0;bottom=0;right=0;collapsible=0;dropTarget=0;fillColor=none;points=[[0,0.5],[1,0.5]];portConstraint=eastwest;fontSize=16;" vertex="1" parent="Q7y5vTMgyJRnCml2gja3-11">
          <mxGeometry y="170" width="706" height="15" as="geometry" />
        </mxCell>
        <mxCell id="Q7y5vTMgyJRnCml2gja3-363" style="shape=partialRectangle;html=1;whiteSpace=wrap;connectable=0;strokeColor=inherit;overflow=hidden;fillColor=none;top=0;left=0;bottom=0;right=0;pointerEvents=1;fontSize=16;" vertex="1" parent="Q7y5vTMgyJRnCml2gja3-20">
          <mxGeometry width="86" height="15" as="geometry">
            <mxRectangle width="86" height="15" as="alternateBounds" />
          </mxGeometry>
        </mxCell>
        <mxCell id="Q7y5vTMgyJRnCml2gja3-147" value="" style="shape=partialRectangle;html=1;whiteSpace=wrap;connectable=0;strokeColor=inherit;overflow=hidden;fillColor=none;top=0;left=0;bottom=0;right=0;pointerEvents=1;fontSize=16;" vertex="1" parent="Q7y5vTMgyJRnCml2gja3-20">
          <mxGeometry x="86" width="100" height="15" as="geometry">
            <mxRectangle width="100" height="15" as="alternateBounds" />
          </mxGeometry>
        </mxCell>
        <mxCell id="Q7y5vTMgyJRnCml2gja3-139" style="shape=partialRectangle;html=1;whiteSpace=wrap;connectable=0;strokeColor=inherit;overflow=hidden;fillColor=none;top=0;left=0;bottom=0;right=0;pointerEvents=1;fontSize=16;" vertex="1" parent="Q7y5vTMgyJRnCml2gja3-20">
          <mxGeometry x="186" width="100" height="15" as="geometry">
            <mxRectangle width="100" height="15" as="alternateBounds" />
          </mxGeometry>
        </mxCell>
        <mxCell id="Q7y5vTMgyJRnCml2gja3-131" style="shape=partialRectangle;html=1;whiteSpace=wrap;connectable=0;strokeColor=inherit;overflow=hidden;fillColor=none;top=0;left=0;bottom=0;right=0;pointerEvents=1;fontSize=16;" vertex="1" parent="Q7y5vTMgyJRnCml2gja3-20">
          <mxGeometry x="286" width="100" height="15" as="geometry">
            <mxRectangle width="100" height="15" as="alternateBounds" />
          </mxGeometry>
        </mxCell>
        <mxCell id="Q7y5vTMgyJRnCml2gja3-115" style="shape=partialRectangle;html=1;whiteSpace=wrap;connectable=0;strokeColor=inherit;overflow=hidden;fillColor=none;top=0;left=0;bottom=0;right=0;pointerEvents=1;fontSize=16;" vertex="1" parent="Q7y5vTMgyJRnCml2gja3-20">
          <mxGeometry x="386" width="100" height="15" as="geometry">
            <mxRectangle width="100" height="15" as="alternateBounds" />
          </mxGeometry>
        </mxCell>
        <mxCell id="Q7y5vTMgyJRnCml2gja3-91" style="shape=partialRectangle;html=1;whiteSpace=wrap;connectable=0;strokeColor=inherit;overflow=hidden;fillColor=none;top=0;left=0;bottom=0;right=0;pointerEvents=1;fontSize=16;" vertex="1" parent="Q7y5vTMgyJRnCml2gja3-20">
          <mxGeometry x="486" width="100" height="15" as="geometry">
            <mxRectangle width="100" height="15" as="alternateBounds" />
          </mxGeometry>
        </mxCell>
        <mxCell id="Q7y5vTMgyJRnCml2gja3-75" style="shape=partialRectangle;html=1;whiteSpace=wrap;connectable=0;strokeColor=inherit;overflow=hidden;fillColor=none;top=0;left=0;bottom=0;right=0;pointerEvents=1;fontSize=16;" vertex="1" parent="Q7y5vTMgyJRnCml2gja3-20">
          <mxGeometry x="586" width="120" height="15" as="geometry">
            <mxRectangle width="120" height="15" as="alternateBounds" />
          </mxGeometry>
        </mxCell>
        <mxCell id="Q7y5vTMgyJRnCml2gja3-335" style="shape=tableRow;horizontal=0;startSize=0;swimlaneHead=0;swimlaneBody=0;strokeColor=inherit;top=0;left=0;bottom=0;right=0;collapsible=0;dropTarget=0;fillColor=none;points=[[0,0.5],[1,0.5]];portConstraint=eastwest;fontSize=16;" vertex="1" parent="Q7y5vTMgyJRnCml2gja3-11">
          <mxGeometry y="185" width="706" height="15" as="geometry" />
        </mxCell>
        <mxCell id="Q7y5vTMgyJRnCml2gja3-364" style="shape=partialRectangle;html=1;whiteSpace=wrap;connectable=0;strokeColor=inherit;overflow=hidden;fillColor=none;top=0;left=0;bottom=0;right=0;pointerEvents=1;fontSize=16;" vertex="1" parent="Q7y5vTMgyJRnCml2gja3-335">
          <mxGeometry width="86" height="15" as="geometry">
            <mxRectangle width="86" height="15" as="alternateBounds" />
          </mxGeometry>
        </mxCell>
        <mxCell id="Q7y5vTMgyJRnCml2gja3-336" style="shape=partialRectangle;html=1;whiteSpace=wrap;connectable=0;strokeColor=inherit;overflow=hidden;fillColor=none;top=0;left=0;bottom=0;right=0;pointerEvents=1;fontSize=16;" vertex="1" parent="Q7y5vTMgyJRnCml2gja3-335">
          <mxGeometry x="86" width="100" height="15" as="geometry">
            <mxRectangle width="100" height="15" as="alternateBounds" />
          </mxGeometry>
        </mxCell>
        <mxCell id="Q7y5vTMgyJRnCml2gja3-337" style="shape=partialRectangle;html=1;whiteSpace=wrap;connectable=0;strokeColor=inherit;overflow=hidden;fillColor=none;top=0;left=0;bottom=0;right=0;pointerEvents=1;fontSize=16;" vertex="1" parent="Q7y5vTMgyJRnCml2gja3-335">
          <mxGeometry x="186" width="100" height="15" as="geometry">
            <mxRectangle width="100" height="15" as="alternateBounds" />
          </mxGeometry>
        </mxCell>
        <mxCell id="Q7y5vTMgyJRnCml2gja3-338" style="shape=partialRectangle;html=1;whiteSpace=wrap;connectable=0;strokeColor=inherit;overflow=hidden;fillColor=none;top=0;left=0;bottom=0;right=0;pointerEvents=1;fontSize=16;" vertex="1" parent="Q7y5vTMgyJRnCml2gja3-335">
          <mxGeometry x="286" width="100" height="15" as="geometry">
            <mxRectangle width="100" height="15" as="alternateBounds" />
          </mxGeometry>
        </mxCell>
        <mxCell id="Q7y5vTMgyJRnCml2gja3-340" style="shape=partialRectangle;html=1;whiteSpace=wrap;connectable=0;strokeColor=inherit;overflow=hidden;fillColor=none;top=0;left=0;bottom=0;right=0;pointerEvents=1;fontSize=16;" vertex="1" parent="Q7y5vTMgyJRnCml2gja3-335">
          <mxGeometry x="386" width="100" height="15" as="geometry">
            <mxRectangle width="100" height="15" as="alternateBounds" />
          </mxGeometry>
        </mxCell>
        <mxCell id="Q7y5vTMgyJRnCml2gja3-343" style="shape=partialRectangle;html=1;whiteSpace=wrap;connectable=0;strokeColor=inherit;overflow=hidden;fillColor=none;top=0;left=0;bottom=0;right=0;pointerEvents=1;fontSize=16;" vertex="1" parent="Q7y5vTMgyJRnCml2gja3-335">
          <mxGeometry x="486" width="100" height="15" as="geometry">
            <mxRectangle width="100" height="15" as="alternateBounds" />
          </mxGeometry>
        </mxCell>
        <mxCell id="Q7y5vTMgyJRnCml2gja3-345" style="shape=partialRectangle;html=1;whiteSpace=wrap;connectable=0;strokeColor=inherit;overflow=hidden;fillColor=none;top=0;left=0;bottom=0;right=0;pointerEvents=1;fontSize=16;" vertex="1" parent="Q7y5vTMgyJRnCml2gja3-335">
          <mxGeometry x="586" width="120" height="15" as="geometry">
            <mxRectangle width="120" height="15" as="alternateBounds" />
          </mxGeometry>
        </mxCell>
        <mxCell id="Q7y5vTMgyJRnCml2gja3-318" style="shape=tableRow;horizontal=0;startSize=0;swimlaneHead=0;swimlaneBody=0;strokeColor=inherit;top=0;left=0;bottom=0;right=0;collapsible=0;dropTarget=0;fillColor=none;points=[[0,0.5],[1,0.5]];portConstraint=eastwest;fontSize=16;" vertex="1" parent="Q7y5vTMgyJRnCml2gja3-11">
          <mxGeometry y="200" width="706" height="15" as="geometry" />
        </mxCell>
        <mxCell id="Q7y5vTMgyJRnCml2gja3-365" style="shape=partialRectangle;html=1;whiteSpace=wrap;connectable=0;strokeColor=inherit;overflow=hidden;fillColor=none;top=0;left=0;bottom=0;right=0;pointerEvents=1;fontSize=16;" vertex="1" parent="Q7y5vTMgyJRnCml2gja3-318">
          <mxGeometry width="86" height="15" as="geometry">
            <mxRectangle width="86" height="15" as="alternateBounds" />
          </mxGeometry>
        </mxCell>
        <mxCell id="Q7y5vTMgyJRnCml2gja3-319" style="shape=partialRectangle;html=1;whiteSpace=wrap;connectable=0;strokeColor=inherit;overflow=hidden;fillColor=none;top=0;left=0;bottom=0;right=0;pointerEvents=1;fontSize=16;" vertex="1" parent="Q7y5vTMgyJRnCml2gja3-318">
          <mxGeometry x="86" width="100" height="15" as="geometry">
            <mxRectangle width="100" height="15" as="alternateBounds" />
          </mxGeometry>
        </mxCell>
        <mxCell id="Q7y5vTMgyJRnCml2gja3-320" style="shape=partialRectangle;html=1;whiteSpace=wrap;connectable=0;strokeColor=inherit;overflow=hidden;fillColor=none;top=0;left=0;bottom=0;right=0;pointerEvents=1;fontSize=16;" vertex="1" parent="Q7y5vTMgyJRnCml2gja3-318">
          <mxGeometry x="186" width="100" height="15" as="geometry">
            <mxRectangle width="100" height="15" as="alternateBounds" />
          </mxGeometry>
        </mxCell>
        <mxCell id="Q7y5vTMgyJRnCml2gja3-321" style="shape=partialRectangle;html=1;whiteSpace=wrap;connectable=0;strokeColor=inherit;overflow=hidden;fillColor=none;top=0;left=0;bottom=0;right=0;pointerEvents=1;fontSize=16;" vertex="1" parent="Q7y5vTMgyJRnCml2gja3-318">
          <mxGeometry x="286" width="100" height="15" as="geometry">
            <mxRectangle width="100" height="15" as="alternateBounds" />
          </mxGeometry>
        </mxCell>
        <mxCell id="Q7y5vTMgyJRnCml2gja3-323" style="shape=partialRectangle;html=1;whiteSpace=wrap;connectable=0;strokeColor=inherit;overflow=hidden;fillColor=none;top=0;left=0;bottom=0;right=0;pointerEvents=1;fontSize=16;" vertex="1" parent="Q7y5vTMgyJRnCml2gja3-318">
          <mxGeometry x="386" width="100" height="15" as="geometry">
            <mxRectangle width="100" height="15" as="alternateBounds" />
          </mxGeometry>
        </mxCell>
        <mxCell id="Q7y5vTMgyJRnCml2gja3-326" style="shape=partialRectangle;html=1;whiteSpace=wrap;connectable=0;strokeColor=inherit;overflow=hidden;fillColor=none;top=0;left=0;bottom=0;right=0;pointerEvents=1;fontSize=16;" vertex="1" parent="Q7y5vTMgyJRnCml2gja3-318">
          <mxGeometry x="486" width="100" height="15" as="geometry">
            <mxRectangle width="100" height="15" as="alternateBounds" />
          </mxGeometry>
        </mxCell>
        <mxCell id="Q7y5vTMgyJRnCml2gja3-328" style="shape=partialRectangle;html=1;whiteSpace=wrap;connectable=0;strokeColor=inherit;overflow=hidden;fillColor=none;top=0;left=0;bottom=0;right=0;pointerEvents=1;fontSize=16;" vertex="1" parent="Q7y5vTMgyJRnCml2gja3-318">
          <mxGeometry x="586" width="120" height="15" as="geometry">
            <mxRectangle width="120" height="15" as="alternateBounds" />
          </mxGeometry>
        </mxCell>
        <mxCell id="Q7y5vTMgyJRnCml2gja3-301" style="shape=tableRow;horizontal=0;startSize=0;swimlaneHead=0;swimlaneBody=0;strokeColor=inherit;top=0;left=0;bottom=0;right=0;collapsible=0;dropTarget=0;fillColor=none;points=[[0,0.5],[1,0.5]];portConstraint=eastwest;fontSize=16;" vertex="1" parent="Q7y5vTMgyJRnCml2gja3-11">
          <mxGeometry y="215" width="706" height="15" as="geometry" />
        </mxCell>
        <mxCell id="Q7y5vTMgyJRnCml2gja3-366" style="shape=partialRectangle;html=1;whiteSpace=wrap;connectable=0;strokeColor=inherit;overflow=hidden;fillColor=none;top=0;left=0;bottom=0;right=0;pointerEvents=1;fontSize=16;" vertex="1" parent="Q7y5vTMgyJRnCml2gja3-301">
          <mxGeometry width="86" height="15" as="geometry">
            <mxRectangle width="86" height="15" as="alternateBounds" />
          </mxGeometry>
        </mxCell>
        <mxCell id="Q7y5vTMgyJRnCml2gja3-302" style="shape=partialRectangle;html=1;whiteSpace=wrap;connectable=0;strokeColor=inherit;overflow=hidden;fillColor=none;top=0;left=0;bottom=0;right=0;pointerEvents=1;fontSize=16;" vertex="1" parent="Q7y5vTMgyJRnCml2gja3-301">
          <mxGeometry x="86" width="100" height="15" as="geometry">
            <mxRectangle width="100" height="15" as="alternateBounds" />
          </mxGeometry>
        </mxCell>
        <mxCell id="Q7y5vTMgyJRnCml2gja3-303" style="shape=partialRectangle;html=1;whiteSpace=wrap;connectable=0;strokeColor=inherit;overflow=hidden;fillColor=none;top=0;left=0;bottom=0;right=0;pointerEvents=1;fontSize=16;" vertex="1" parent="Q7y5vTMgyJRnCml2gja3-301">
          <mxGeometry x="186" width="100" height="15" as="geometry">
            <mxRectangle width="100" height="15" as="alternateBounds" />
          </mxGeometry>
        </mxCell>
        <mxCell id="Q7y5vTMgyJRnCml2gja3-304" style="shape=partialRectangle;html=1;whiteSpace=wrap;connectable=0;strokeColor=inherit;overflow=hidden;fillColor=none;top=0;left=0;bottom=0;right=0;pointerEvents=1;fontSize=16;" vertex="1" parent="Q7y5vTMgyJRnCml2gja3-301">
          <mxGeometry x="286" width="100" height="15" as="geometry">
            <mxRectangle width="100" height="15" as="alternateBounds" />
          </mxGeometry>
        </mxCell>
        <mxCell id="Q7y5vTMgyJRnCml2gja3-306" style="shape=partialRectangle;html=1;whiteSpace=wrap;connectable=0;strokeColor=inherit;overflow=hidden;fillColor=none;top=0;left=0;bottom=0;right=0;pointerEvents=1;fontSize=16;" vertex="1" parent="Q7y5vTMgyJRnCml2gja3-301">
          <mxGeometry x="386" width="100" height="15" as="geometry">
            <mxRectangle width="100" height="15" as="alternateBounds" />
          </mxGeometry>
        </mxCell>
        <mxCell id="Q7y5vTMgyJRnCml2gja3-309" style="shape=partialRectangle;html=1;whiteSpace=wrap;connectable=0;strokeColor=inherit;overflow=hidden;fillColor=none;top=0;left=0;bottom=0;right=0;pointerEvents=1;fontSize=16;" vertex="1" parent="Q7y5vTMgyJRnCml2gja3-301">
          <mxGeometry x="486" width="100" height="15" as="geometry">
            <mxRectangle width="100" height="15" as="alternateBounds" />
          </mxGeometry>
        </mxCell>
        <mxCell id="Q7y5vTMgyJRnCml2gja3-311" style="shape=partialRectangle;html=1;whiteSpace=wrap;connectable=0;strokeColor=inherit;overflow=hidden;fillColor=none;top=0;left=0;bottom=0;right=0;pointerEvents=1;fontSize=16;" vertex="1" parent="Q7y5vTMgyJRnCml2gja3-301">
          <mxGeometry x="586" width="120" height="15" as="geometry">
            <mxRectangle width="120" height="15" as="alternateBounds" />
          </mxGeometry>
        </mxCell>
        <mxCell id="Q7y5vTMgyJRnCml2gja3-284" style="shape=tableRow;horizontal=0;startSize=0;swimlaneHead=0;swimlaneBody=0;strokeColor=inherit;top=0;left=0;bottom=0;right=0;collapsible=0;dropTarget=0;fillColor=none;points=[[0,0.5],[1,0.5]];portConstraint=eastwest;fontSize=16;" vertex="1" parent="Q7y5vTMgyJRnCml2gja3-11">
          <mxGeometry y="230" width="706" height="15" as="geometry" />
        </mxCell>
        <mxCell id="Q7y5vTMgyJRnCml2gja3-367" style="shape=partialRectangle;html=1;whiteSpace=wrap;connectable=0;strokeColor=inherit;overflow=hidden;fillColor=none;top=0;left=0;bottom=0;right=0;pointerEvents=1;fontSize=16;" vertex="1" parent="Q7y5vTMgyJRnCml2gja3-284">
          <mxGeometry width="86" height="15" as="geometry">
            <mxRectangle width="86" height="15" as="alternateBounds" />
          </mxGeometry>
        </mxCell>
        <mxCell id="Q7y5vTMgyJRnCml2gja3-285" style="shape=partialRectangle;html=1;whiteSpace=wrap;connectable=0;strokeColor=inherit;overflow=hidden;fillColor=none;top=0;left=0;bottom=0;right=0;pointerEvents=1;fontSize=16;" vertex="1" parent="Q7y5vTMgyJRnCml2gja3-284">
          <mxGeometry x="86" width="100" height="15" as="geometry">
            <mxRectangle width="100" height="15" as="alternateBounds" />
          </mxGeometry>
        </mxCell>
        <mxCell id="Q7y5vTMgyJRnCml2gja3-286" style="shape=partialRectangle;html=1;whiteSpace=wrap;connectable=0;strokeColor=inherit;overflow=hidden;fillColor=none;top=0;left=0;bottom=0;right=0;pointerEvents=1;fontSize=16;" vertex="1" parent="Q7y5vTMgyJRnCml2gja3-284">
          <mxGeometry x="186" width="100" height="15" as="geometry">
            <mxRectangle width="100" height="15" as="alternateBounds" />
          </mxGeometry>
        </mxCell>
        <mxCell id="Q7y5vTMgyJRnCml2gja3-287" style="shape=partialRectangle;html=1;whiteSpace=wrap;connectable=0;strokeColor=inherit;overflow=hidden;fillColor=none;top=0;left=0;bottom=0;right=0;pointerEvents=1;fontSize=16;" vertex="1" parent="Q7y5vTMgyJRnCml2gja3-284">
          <mxGeometry x="286" width="100" height="15" as="geometry">
            <mxRectangle width="100" height="15" as="alternateBounds" />
          </mxGeometry>
        </mxCell>
        <mxCell id="Q7y5vTMgyJRnCml2gja3-289" style="shape=partialRectangle;html=1;whiteSpace=wrap;connectable=0;strokeColor=inherit;overflow=hidden;fillColor=none;top=0;left=0;bottom=0;right=0;pointerEvents=1;fontSize=16;" vertex="1" parent="Q7y5vTMgyJRnCml2gja3-284">
          <mxGeometry x="386" width="100" height="15" as="geometry">
            <mxRectangle width="100" height="15" as="alternateBounds" />
          </mxGeometry>
        </mxCell>
        <mxCell id="Q7y5vTMgyJRnCml2gja3-292" style="shape=partialRectangle;html=1;whiteSpace=wrap;connectable=0;strokeColor=inherit;overflow=hidden;fillColor=none;top=0;left=0;bottom=0;right=0;pointerEvents=1;fontSize=16;" vertex="1" parent="Q7y5vTMgyJRnCml2gja3-284">
          <mxGeometry x="486" width="100" height="15" as="geometry">
            <mxRectangle width="100" height="15" as="alternateBounds" />
          </mxGeometry>
        </mxCell>
        <mxCell id="Q7y5vTMgyJRnCml2gja3-294" style="shape=partialRectangle;html=1;whiteSpace=wrap;connectable=0;strokeColor=inherit;overflow=hidden;fillColor=none;top=0;left=0;bottom=0;right=0;pointerEvents=1;fontSize=16;" vertex="1" parent="Q7y5vTMgyJRnCml2gja3-284">
          <mxGeometry x="586" width="120" height="15" as="geometry">
            <mxRectangle width="120" height="15" as="alternateBounds" />
          </mxGeometry>
        </mxCell>
        <mxCell id="Q7y5vTMgyJRnCml2gja3-267" style="shape=tableRow;horizontal=0;startSize=0;swimlaneHead=0;swimlaneBody=0;strokeColor=inherit;top=0;left=0;bottom=0;right=0;collapsible=0;dropTarget=0;fillColor=none;points=[[0,0.5],[1,0.5]];portConstraint=eastwest;fontSize=16;" vertex="1" parent="Q7y5vTMgyJRnCml2gja3-11">
          <mxGeometry y="245" width="706" height="15" as="geometry" />
        </mxCell>
        <mxCell id="Q7y5vTMgyJRnCml2gja3-368" style="shape=partialRectangle;html=1;whiteSpace=wrap;connectable=0;strokeColor=inherit;overflow=hidden;fillColor=none;top=0;left=0;bottom=0;right=0;pointerEvents=1;fontSize=16;" vertex="1" parent="Q7y5vTMgyJRnCml2gja3-267">
          <mxGeometry width="86" height="15" as="geometry">
            <mxRectangle width="86" height="15" as="alternateBounds" />
          </mxGeometry>
        </mxCell>
        <mxCell id="Q7y5vTMgyJRnCml2gja3-268" style="shape=partialRectangle;html=1;whiteSpace=wrap;connectable=0;strokeColor=inherit;overflow=hidden;fillColor=none;top=0;left=0;bottom=0;right=0;pointerEvents=1;fontSize=16;" vertex="1" parent="Q7y5vTMgyJRnCml2gja3-267">
          <mxGeometry x="86" width="100" height="15" as="geometry">
            <mxRectangle width="100" height="15" as="alternateBounds" />
          </mxGeometry>
        </mxCell>
        <mxCell id="Q7y5vTMgyJRnCml2gja3-269" style="shape=partialRectangle;html=1;whiteSpace=wrap;connectable=0;strokeColor=inherit;overflow=hidden;fillColor=none;top=0;left=0;bottom=0;right=0;pointerEvents=1;fontSize=16;" vertex="1" parent="Q7y5vTMgyJRnCml2gja3-267">
          <mxGeometry x="186" width="100" height="15" as="geometry">
            <mxRectangle width="100" height="15" as="alternateBounds" />
          </mxGeometry>
        </mxCell>
        <mxCell id="Q7y5vTMgyJRnCml2gja3-270" style="shape=partialRectangle;html=1;whiteSpace=wrap;connectable=0;strokeColor=inherit;overflow=hidden;fillColor=none;top=0;left=0;bottom=0;right=0;pointerEvents=1;fontSize=16;" vertex="1" parent="Q7y5vTMgyJRnCml2gja3-267">
          <mxGeometry x="286" width="100" height="15" as="geometry">
            <mxRectangle width="100" height="15" as="alternateBounds" />
          </mxGeometry>
        </mxCell>
        <mxCell id="Q7y5vTMgyJRnCml2gja3-272" style="shape=partialRectangle;html=1;whiteSpace=wrap;connectable=0;strokeColor=inherit;overflow=hidden;fillColor=none;top=0;left=0;bottom=0;right=0;pointerEvents=1;fontSize=16;" vertex="1" parent="Q7y5vTMgyJRnCml2gja3-267">
          <mxGeometry x="386" width="100" height="15" as="geometry">
            <mxRectangle width="100" height="15" as="alternateBounds" />
          </mxGeometry>
        </mxCell>
        <mxCell id="Q7y5vTMgyJRnCml2gja3-275" style="shape=partialRectangle;html=1;whiteSpace=wrap;connectable=0;strokeColor=inherit;overflow=hidden;fillColor=none;top=0;left=0;bottom=0;right=0;pointerEvents=1;fontSize=16;" vertex="1" parent="Q7y5vTMgyJRnCml2gja3-267">
          <mxGeometry x="486" width="100" height="15" as="geometry">
            <mxRectangle width="100" height="15" as="alternateBounds" />
          </mxGeometry>
        </mxCell>
        <mxCell id="Q7y5vTMgyJRnCml2gja3-277" style="shape=partialRectangle;html=1;whiteSpace=wrap;connectable=0;strokeColor=inherit;overflow=hidden;fillColor=none;top=0;left=0;bottom=0;right=0;pointerEvents=1;fontSize=16;" vertex="1" parent="Q7y5vTMgyJRnCml2gja3-267">
          <mxGeometry x="586" width="120" height="15" as="geometry">
            <mxRectangle width="120" height="15" as="alternateBounds" />
          </mxGeometry>
        </mxCell>
        <mxCell id="Q7y5vTMgyJRnCml2gja3-250" style="shape=tableRow;horizontal=0;startSize=0;swimlaneHead=0;swimlaneBody=0;strokeColor=inherit;top=0;left=0;bottom=0;right=0;collapsible=0;dropTarget=0;fillColor=none;points=[[0,0.5],[1,0.5]];portConstraint=eastwest;fontSize=16;" vertex="1" parent="Q7y5vTMgyJRnCml2gja3-11">
          <mxGeometry y="260" width="706" height="15" as="geometry" />
        </mxCell>
        <mxCell id="Q7y5vTMgyJRnCml2gja3-369" style="shape=partialRectangle;html=1;whiteSpace=wrap;connectable=0;strokeColor=inherit;overflow=hidden;fillColor=none;top=0;left=0;bottom=0;right=0;pointerEvents=1;fontSize=16;" vertex="1" parent="Q7y5vTMgyJRnCml2gja3-250">
          <mxGeometry width="86" height="15" as="geometry">
            <mxRectangle width="86" height="15" as="alternateBounds" />
          </mxGeometry>
        </mxCell>
        <mxCell id="Q7y5vTMgyJRnCml2gja3-251" style="shape=partialRectangle;html=1;whiteSpace=wrap;connectable=0;strokeColor=inherit;overflow=hidden;fillColor=none;top=0;left=0;bottom=0;right=0;pointerEvents=1;fontSize=16;" vertex="1" parent="Q7y5vTMgyJRnCml2gja3-250">
          <mxGeometry x="86" width="100" height="15" as="geometry">
            <mxRectangle width="100" height="15" as="alternateBounds" />
          </mxGeometry>
        </mxCell>
        <mxCell id="Q7y5vTMgyJRnCml2gja3-252" style="shape=partialRectangle;html=1;whiteSpace=wrap;connectable=0;strokeColor=inherit;overflow=hidden;fillColor=none;top=0;left=0;bottom=0;right=0;pointerEvents=1;fontSize=16;" vertex="1" parent="Q7y5vTMgyJRnCml2gja3-250">
          <mxGeometry x="186" width="100" height="15" as="geometry">
            <mxRectangle width="100" height="15" as="alternateBounds" />
          </mxGeometry>
        </mxCell>
        <mxCell id="Q7y5vTMgyJRnCml2gja3-253" style="shape=partialRectangle;html=1;whiteSpace=wrap;connectable=0;strokeColor=inherit;overflow=hidden;fillColor=none;top=0;left=0;bottom=0;right=0;pointerEvents=1;fontSize=16;" vertex="1" parent="Q7y5vTMgyJRnCml2gja3-250">
          <mxGeometry x="286" width="100" height="15" as="geometry">
            <mxRectangle width="100" height="15" as="alternateBounds" />
          </mxGeometry>
        </mxCell>
        <mxCell id="Q7y5vTMgyJRnCml2gja3-255" style="shape=partialRectangle;html=1;whiteSpace=wrap;connectable=0;strokeColor=inherit;overflow=hidden;fillColor=none;top=0;left=0;bottom=0;right=0;pointerEvents=1;fontSize=16;" vertex="1" parent="Q7y5vTMgyJRnCml2gja3-250">
          <mxGeometry x="386" width="100" height="15" as="geometry">
            <mxRectangle width="100" height="15" as="alternateBounds" />
          </mxGeometry>
        </mxCell>
        <mxCell id="Q7y5vTMgyJRnCml2gja3-258" style="shape=partialRectangle;html=1;whiteSpace=wrap;connectable=0;strokeColor=inherit;overflow=hidden;fillColor=none;top=0;left=0;bottom=0;right=0;pointerEvents=1;fontSize=16;" vertex="1" parent="Q7y5vTMgyJRnCml2gja3-250">
          <mxGeometry x="486" width="100" height="15" as="geometry">
            <mxRectangle width="100" height="15" as="alternateBounds" />
          </mxGeometry>
        </mxCell>
        <mxCell id="Q7y5vTMgyJRnCml2gja3-260" style="shape=partialRectangle;html=1;whiteSpace=wrap;connectable=0;strokeColor=inherit;overflow=hidden;fillColor=none;top=0;left=0;bottom=0;right=0;pointerEvents=1;fontSize=16;" vertex="1" parent="Q7y5vTMgyJRnCml2gja3-250">
          <mxGeometry x="586" width="120" height="15" as="geometry">
            <mxRectangle width="120" height="15" as="alternateBounds" />
          </mxGeometry>
        </mxCell>
        <mxCell id="Q7y5vTMgyJRnCml2gja3-233" style="shape=tableRow;horizontal=0;startSize=0;swimlaneHead=0;swimlaneBody=0;strokeColor=inherit;top=0;left=0;bottom=0;right=0;collapsible=0;dropTarget=0;fillColor=none;points=[[0,0.5],[1,0.5]];portConstraint=eastwest;fontSize=16;" vertex="1" parent="Q7y5vTMgyJRnCml2gja3-11">
          <mxGeometry y="275" width="706" height="15" as="geometry" />
        </mxCell>
        <mxCell id="Q7y5vTMgyJRnCml2gja3-370" style="shape=partialRectangle;html=1;whiteSpace=wrap;connectable=0;strokeColor=inherit;overflow=hidden;fillColor=none;top=0;left=0;bottom=0;right=0;pointerEvents=1;fontSize=16;" vertex="1" parent="Q7y5vTMgyJRnCml2gja3-233">
          <mxGeometry width="86" height="15" as="geometry">
            <mxRectangle width="86" height="15" as="alternateBounds" />
          </mxGeometry>
        </mxCell>
        <mxCell id="Q7y5vTMgyJRnCml2gja3-234" style="shape=partialRectangle;html=1;whiteSpace=wrap;connectable=0;strokeColor=inherit;overflow=hidden;fillColor=none;top=0;left=0;bottom=0;right=0;pointerEvents=1;fontSize=16;" vertex="1" parent="Q7y5vTMgyJRnCml2gja3-233">
          <mxGeometry x="86" width="100" height="15" as="geometry">
            <mxRectangle width="100" height="15" as="alternateBounds" />
          </mxGeometry>
        </mxCell>
        <mxCell id="Q7y5vTMgyJRnCml2gja3-235" style="shape=partialRectangle;html=1;whiteSpace=wrap;connectable=0;strokeColor=inherit;overflow=hidden;fillColor=none;top=0;left=0;bottom=0;right=0;pointerEvents=1;fontSize=16;" vertex="1" parent="Q7y5vTMgyJRnCml2gja3-233">
          <mxGeometry x="186" width="100" height="15" as="geometry">
            <mxRectangle width="100" height="15" as="alternateBounds" />
          </mxGeometry>
        </mxCell>
        <mxCell id="Q7y5vTMgyJRnCml2gja3-236" style="shape=partialRectangle;html=1;whiteSpace=wrap;connectable=0;strokeColor=inherit;overflow=hidden;fillColor=none;top=0;left=0;bottom=0;right=0;pointerEvents=1;fontSize=16;" vertex="1" parent="Q7y5vTMgyJRnCml2gja3-233">
          <mxGeometry x="286" width="100" height="15" as="geometry">
            <mxRectangle width="100" height="15" as="alternateBounds" />
          </mxGeometry>
        </mxCell>
        <mxCell id="Q7y5vTMgyJRnCml2gja3-238" style="shape=partialRectangle;html=1;whiteSpace=wrap;connectable=0;strokeColor=inherit;overflow=hidden;fillColor=none;top=0;left=0;bottom=0;right=0;pointerEvents=1;fontSize=16;" vertex="1" parent="Q7y5vTMgyJRnCml2gja3-233">
          <mxGeometry x="386" width="100" height="15" as="geometry">
            <mxRectangle width="100" height="15" as="alternateBounds" />
          </mxGeometry>
        </mxCell>
        <mxCell id="Q7y5vTMgyJRnCml2gja3-241" style="shape=partialRectangle;html=1;whiteSpace=wrap;connectable=0;strokeColor=inherit;overflow=hidden;fillColor=none;top=0;left=0;bottom=0;right=0;pointerEvents=1;fontSize=16;" vertex="1" parent="Q7y5vTMgyJRnCml2gja3-233">
          <mxGeometry x="486" width="100" height="15" as="geometry">
            <mxRectangle width="100" height="15" as="alternateBounds" />
          </mxGeometry>
        </mxCell>
        <mxCell id="Q7y5vTMgyJRnCml2gja3-243" style="shape=partialRectangle;html=1;whiteSpace=wrap;connectable=0;strokeColor=inherit;overflow=hidden;fillColor=none;top=0;left=0;bottom=0;right=0;pointerEvents=1;fontSize=16;" vertex="1" parent="Q7y5vTMgyJRnCml2gja3-233">
          <mxGeometry x="586" width="120" height="15" as="geometry">
            <mxRectangle width="120" height="15" as="alternateBounds" />
          </mxGeometry>
        </mxCell>
        <mxCell id="Q7y5vTMgyJRnCml2gja3-216" style="shape=tableRow;horizontal=0;startSize=0;swimlaneHead=0;swimlaneBody=0;strokeColor=inherit;top=0;left=0;bottom=0;right=0;collapsible=0;dropTarget=0;fillColor=none;points=[[0,0.5],[1,0.5]];portConstraint=eastwest;fontSize=16;" vertex="1" parent="Q7y5vTMgyJRnCml2gja3-11">
          <mxGeometry y="290" width="706" height="15" as="geometry" />
        </mxCell>
        <mxCell id="Q7y5vTMgyJRnCml2gja3-371" style="shape=partialRectangle;html=1;whiteSpace=wrap;connectable=0;strokeColor=inherit;overflow=hidden;fillColor=none;top=0;left=0;bottom=0;right=0;pointerEvents=1;fontSize=16;" vertex="1" parent="Q7y5vTMgyJRnCml2gja3-216">
          <mxGeometry width="86" height="15" as="geometry">
            <mxRectangle width="86" height="15" as="alternateBounds" />
          </mxGeometry>
        </mxCell>
        <mxCell id="Q7y5vTMgyJRnCml2gja3-217" style="shape=partialRectangle;html=1;whiteSpace=wrap;connectable=0;strokeColor=inherit;overflow=hidden;fillColor=none;top=0;left=0;bottom=0;right=0;pointerEvents=1;fontSize=16;" vertex="1" parent="Q7y5vTMgyJRnCml2gja3-216">
          <mxGeometry x="86" width="100" height="15" as="geometry">
            <mxRectangle width="100" height="15" as="alternateBounds" />
          </mxGeometry>
        </mxCell>
        <mxCell id="Q7y5vTMgyJRnCml2gja3-218" style="shape=partialRectangle;html=1;whiteSpace=wrap;connectable=0;strokeColor=inherit;overflow=hidden;fillColor=none;top=0;left=0;bottom=0;right=0;pointerEvents=1;fontSize=16;" vertex="1" parent="Q7y5vTMgyJRnCml2gja3-216">
          <mxGeometry x="186" width="100" height="15" as="geometry">
            <mxRectangle width="100" height="15" as="alternateBounds" />
          </mxGeometry>
        </mxCell>
        <mxCell id="Q7y5vTMgyJRnCml2gja3-219" style="shape=partialRectangle;html=1;whiteSpace=wrap;connectable=0;strokeColor=inherit;overflow=hidden;fillColor=none;top=0;left=0;bottom=0;right=0;pointerEvents=1;fontSize=16;" vertex="1" parent="Q7y5vTMgyJRnCml2gja3-216">
          <mxGeometry x="286" width="100" height="15" as="geometry">
            <mxRectangle width="100" height="15" as="alternateBounds" />
          </mxGeometry>
        </mxCell>
        <mxCell id="Q7y5vTMgyJRnCml2gja3-221" style="shape=partialRectangle;html=1;whiteSpace=wrap;connectable=0;strokeColor=inherit;overflow=hidden;fillColor=none;top=0;left=0;bottom=0;right=0;pointerEvents=1;fontSize=16;" vertex="1" parent="Q7y5vTMgyJRnCml2gja3-216">
          <mxGeometry x="386" width="100" height="15" as="geometry">
            <mxRectangle width="100" height="15" as="alternateBounds" />
          </mxGeometry>
        </mxCell>
        <mxCell id="Q7y5vTMgyJRnCml2gja3-224" style="shape=partialRectangle;html=1;whiteSpace=wrap;connectable=0;strokeColor=inherit;overflow=hidden;fillColor=none;top=0;left=0;bottom=0;right=0;pointerEvents=1;fontSize=16;" vertex="1" parent="Q7y5vTMgyJRnCml2gja3-216">
          <mxGeometry x="486" width="100" height="15" as="geometry">
            <mxRectangle width="100" height="15" as="alternateBounds" />
          </mxGeometry>
        </mxCell>
        <mxCell id="Q7y5vTMgyJRnCml2gja3-226" style="shape=partialRectangle;html=1;whiteSpace=wrap;connectable=0;strokeColor=inherit;overflow=hidden;fillColor=none;top=0;left=0;bottom=0;right=0;pointerEvents=1;fontSize=16;" vertex="1" parent="Q7y5vTMgyJRnCml2gja3-216">
          <mxGeometry x="586" width="120" height="15" as="geometry">
            <mxRectangle width="120" height="15" as="alternateBounds" />
          </mxGeometry>
        </mxCell>
        <mxCell id="Q7y5vTMgyJRnCml2gja3-372" value="編集▸" style="rounded=1;whiteSpace=wrap;html=1;arcSize=16;fillColor=#dae8fc;strokeColor=#6c8ebf;" vertex="1" parent="Q7y5vTMgyJRnCml2gja3-2">
          <mxGeometry x="90" y="222" width="70" height="10" as="geometry" />
        </mxCell>
        <mxCell id="Q7y5vTMgyJRnCml2gja3-373" value="編集▸" style="rounded=1;whiteSpace=wrap;html=1;arcSize=16;fillColor=#dae8fc;strokeColor=#6c8ebf;" vertex="1" parent="Q7y5vTMgyJRnCml2gja3-2">
          <mxGeometry x="90" y="237" width="70" height="10" as="geometry" />
        </mxCell>
        <mxCell id="Q7y5vTMgyJRnCml2gja3-374" value="編集▸" style="rounded=1;whiteSpace=wrap;html=1;arcSize=16;fillColor=#dae8fc;strokeColor=#6c8ebf;" vertex="1" parent="Q7y5vTMgyJRnCml2gja3-2">
          <mxGeometry x="90" y="253" width="70" height="10" as="geometry" />
        </mxCell>
        <mxCell id="Q7y5vTMgyJRnCml2gja3-375" value="編集▸" style="rounded=1;whiteSpace=wrap;html=1;arcSize=16;fillColor=#dae8fc;strokeColor=#6c8ebf;" vertex="1" parent="Q7y5vTMgyJRnCml2gja3-2">
          <mxGeometry x="90" y="268" width="70" height="10" as="geometry" />
        </mxCell>
        <mxCell id="Q7y5vTMgyJRnCml2gja3-376" value="編集▸" style="rounded=1;whiteSpace=wrap;html=1;arcSize=16;fillColor=#dae8fc;strokeColor=#6c8ebf;" vertex="1" parent="Q7y5vTMgyJRnCml2gja3-2">
          <mxGeometry x="90" y="268" width="70" height="10" as="geometry" />
        </mxCell>
        <mxCell id="Q7y5vTMgyJRnCml2gja3-377" value="編集▸" style="rounded=1;whiteSpace=wrap;html=1;arcSize=16;fillColor=#dae8fc;strokeColor=#6c8ebf;" vertex="1" parent="Q7y5vTMgyJRnCml2gja3-2">
          <mxGeometry x="90" y="282" width="70" height="10" as="geometry" />
        </mxCell>
        <mxCell id="Q7y5vTMgyJRnCml2gja3-378" value="編集▸" style="rounded=1;whiteSpace=wrap;html=1;arcSize=16;fillColor=#dae8fc;strokeColor=#6c8ebf;" vertex="1" parent="Q7y5vTMgyJRnCml2gja3-2">
          <mxGeometry x="90" y="297" width="70" height="10" as="geometry" />
        </mxCell>
        <mxCell id="Q7y5vTMgyJRnCml2gja3-379" value="編集▸" style="rounded=1;whiteSpace=wrap;html=1;arcSize=16;fillColor=#dae8fc;strokeColor=#6c8ebf;" vertex="1" parent="Q7y5vTMgyJRnCml2gja3-2">
          <mxGeometry x="90" y="312" width="70" height="10" as="geometry" />
        </mxCell>
        <mxCell id="Q7y5vTMgyJRnCml2gja3-380" value="編集▸" style="rounded=1;whiteSpace=wrap;html=1;arcSize=16;fillColor=#dae8fc;strokeColor=#6c8ebf;" vertex="1" parent="Q7y5vTMgyJRnCml2gja3-2">
          <mxGeometry x="90" y="327" width="70" height="10" as="geometry" />
        </mxCell>
        <mxCell id="Q7y5vTMgyJRnCml2gja3-381" value="編集▸" style="rounded=1;whiteSpace=wrap;html=1;arcSize=16;fillColor=#dae8fc;strokeColor=#6c8ebf;" vertex="1" parent="Q7y5vTMgyJRnCml2gja3-2">
          <mxGeometry x="90" y="342" width="70" height="10" as="geometry" />
        </mxCell>
        <mxCell id="Q7y5vTMgyJRnCml2gja3-382" value="編集▸" style="rounded=1;whiteSpace=wrap;html=1;arcSize=16;fillColor=#dae8fc;strokeColor=#6c8ebf;" vertex="1" parent="Q7y5vTMgyJRnCml2gja3-2">
          <mxGeometry x="90" y="358" width="70" height="10" as="geometry" />
        </mxCell>
        <mxCell id="Q7y5vTMgyJRnCml2gja3-383" value="編集▸" style="rounded=1;whiteSpace=wrap;html=1;arcSize=16;fillColor=#dae8fc;strokeColor=#6c8ebf;" vertex="1" parent="Q7y5vTMgyJRnCml2gja3-2">
          <mxGeometry x="90" y="373" width="70" height="10" as="geometry" />
        </mxCell>
        <mxCell id="Q7y5vTMgyJRnCml2gja3-384" value="編集▸" style="rounded=1;whiteSpace=wrap;html=1;arcSize=16;fillColor=#dae8fc;strokeColor=#6c8ebf;" vertex="1" parent="Q7y5vTMgyJRnCml2gja3-2">
          <mxGeometry x="90" y="387" width="70" height="10" as="geometry" />
        </mxCell>
        <mxCell id="Q7y5vTMgyJRnCml2gja3-385" value="編集▸" style="rounded=1;whiteSpace=wrap;html=1;arcSize=16;fillColor=#dae8fc;strokeColor=#6c8ebf;" vertex="1" parent="Q7y5vTMgyJRnCml2gja3-2">
          <mxGeometry x="90" y="402" width="70" height="10" as="geometry" />
        </mxCell>
        <mxCell id="Q7y5vTMgyJRnCml2gja3-386" value="編集▸" style="rounded=1;whiteSpace=wrap;html=1;arcSize=16;fillColor=#dae8fc;strokeColor=#6c8ebf;" vertex="1" parent="Q7y5vTMgyJRnCml2gja3-2">
          <mxGeometry x="90" y="417" width="70" height="10" as="geometry" />
        </mxCell>
        <mxCell id="Q7y5vTMgyJRnCml2gja3-553" value="編集▸" style="rounded=1;whiteSpace=wrap;html=1;arcSize=16;fillColor=#dae8fc;strokeColor=#6c8ebf;" vertex="1" parent="Q7y5vTMgyJRnCml2gja3-2">
          <mxGeometry x="90" y="433" width="70" height="10" as="geometry" />
        </mxCell>
        <mxCell id="Q7y5vTMgyJRnCml2gja3-554" value="編集▸" style="rounded=1;whiteSpace=wrap;html=1;arcSize=16;fillColor=#dae8fc;strokeColor=#6c8ebf;" vertex="1" parent="Q7y5vTMgyJRnCml2gja3-2">
          <mxGeometry x="90" y="448" width="70" height="10" as="geometry" />
        </mxCell>
        <mxCell id="Q7y5vTMgyJRnCml2gja3-555" value="編集▸" style="rounded=1;whiteSpace=wrap;html=1;arcSize=16;fillColor=#dae8fc;strokeColor=#6c8ebf;" vertex="1" parent="Q7y5vTMgyJRnCml2gja3-2">
          <mxGeometry x="90" y="462" width="70" height="10" as="geometry" />
        </mxCell>
        <mxCell id="Q7y5vTMgyJRnCml2gja3-556" value="編集▸" style="rounded=1;whiteSpace=wrap;html=1;arcSize=16;fillColor=#dae8fc;strokeColor=#6c8ebf;" vertex="1" parent="Q7y5vTMgyJRnCml2gja3-2">
          <mxGeometry x="90" y="477" width="70" height="10" as="geometry" />
        </mxCell>
        <mxCell id="Q7y5vTMgyJRnCml2gja3-557" value="編集▸" style="rounded=1;whiteSpace=wrap;html=1;arcSize=16;fillColor=#dae8fc;strokeColor=#6c8ebf;" vertex="1" parent="Q7y5vTMgyJRnCml2gja3-2">
          <mxGeometry x="90" y="492" width="70" height="10" as="geometry" />
        </mxCell>
      </root>
    </mxGraphModel>
  </diagram>
</mxfile>
